<svg width="512" height="512" viewBox="0 0 512 512" fill="none" xmlns="http://www.w3.org/2000/svg">
<path d="M344.879 392.036L369.033 432.103C334.578 452.933 295.319 463.883 254.682 463.883C222.754 463.883 191.679 457.122 163.12 444.111L182.368 401.483C204.917 411.762 229.458 417.1 254.682 417.1C286.747 417.101 317.72 408.473 344.879 392.036ZM459.992 325.493C454.626 338.749 447.989 351.455 440.175 363.432L400.927 337.969C407.126 328.494 412.387 318.437 416.635 307.941C421.473 295.966 435.109 290.184 447.084 295.033C459.059 299.882 464.841 313.518 459.992 325.493Z" fill="#6621A3"/>
<path d="M195.007 429.19C198.306 418.083 192.91 406.277 182.365 401.476C173.145 397.275 164.31 392.278 155.96 386.541C127.592 367.058 105.779 339.991 92.86 308.251C88.142 296.659 75.078 290.481 63.279 294.655C50.628 299.13 44.391 313.189 49.371 325.493C65.727 365.9 93.427 400.344 129.475 425.102C140.111 432.41 151.367 438.771 163.115 444.112C175.893 449.919 190.879 443.094 194.873 429.639C194.919 429.489 194.963 429.34 195.007 429.19ZM435.739 333.108C425.105 323.711 408.692 326.091 400.93 337.972C388.508 356.988 372.432 373.471 353.403 386.54C350.617 388.453 347.775 390.285 344.883 392.035C334.42 398.359 330.891 411.81 336.634 422.603L336.854 423.017C343.046 434.675 357.734 438.936 369.029 432.106C372.715 429.876 376.337 427.54 379.888 425.102C404.032 408.52 424.425 387.59 440.177 363.436C446.452 353.813 444.707 341.04 436.101 333.429L435.739 333.108Z" fill="#570E99"/>
<path d="M286.122 301.398V348.478H223.237V301.398C223.231 297.269 224.042 293.178 225.623 289.363C227.204 285.548 229.524 282.083 232.45 279.168C238.141 273.477 246.002 269.955 254.68 269.955C272.047 269.956 286.122 284.031 286.122 301.398Z" fill="#8F6BDD"/>
<path d="M254.68 512C237.324 512 223.238 497.924 223.238 480.558V401.868H286.123V480.558C286.13 484.688 285.319 488.778 283.738 492.593C282.157 496.409 279.836 499.873 276.91 502.788C273.996 505.713 270.531 508.034 266.716 509.615C262.9 511.195 258.81 512.006 254.68 512Z" fill="#772DBD"/>
<path d="M286.127 401.869V348.477C286.127 331.112 272.05 317.035 254.685 317.035C237.32 317.035 223.243 331.112 223.243 348.477V401.869C223.243 419.234 237.32 433.311 254.685 433.311C272.049 433.312 286.127 419.234 286.127 401.869Z" fill="#8042E0"/>
<path d="M333.21 275.198L366.499 308.488L322.033 352.954L288.744 319.664C285.819 316.748 283.499 313.283 281.92 309.467C280.34 305.651 279.531 301.56 279.539 297.431C279.539 289.383 282.608 281.334 288.744 275.198C301.024 262.918 320.93 262.918 333.21 275.198Z" fill="#8F6BDD"/>
<path d="M459.895 446.348C447.622 458.621 427.709 458.628 415.429 446.348L359.787 390.706L404.253 346.24L459.895 401.882C462.82 404.797 465.139 408.263 466.718 412.078C468.298 415.894 469.108 419.985 469.1 424.115C469.107 428.244 468.298 432.335 466.718 436.151C465.138 439.966 462.819 443.432 459.895 446.348Z" fill="#772DBD"/>
<path d="M404.257 346.238L366.503 308.484C354.224 296.205 334.316 296.205 322.037 308.484C309.758 320.763 309.758 340.671 322.037 352.95L359.791 390.704C372.07 402.983 391.978 402.983 404.257 390.704C416.536 378.426 416.536 358.517 404.257 346.238Z" fill="#8042E0"/>
<path d="M176.155 275.198L142.865 308.488L187.331 352.954L220.621 319.664C223.546 316.748 225.865 313.283 227.445 309.467C229.025 305.651 229.834 301.56 229.825 297.431C229.825 289.383 226.757 281.334 220.621 275.198C208.341 262.918 188.435 262.918 176.155 275.198Z" fill="#8F6BDD"/>
<path d="M49.4711 446.348C61.7441 458.621 81.657 458.628 93.937 446.348L149.579 390.706L105.113 346.24L49.4711 401.882C46.5462 404.797 44.2271 408.263 42.6473 412.078C41.0675 415.894 40.2582 419.985 40.266 424.115C40.2581 428.244 41.0673 432.335 42.6472 436.151C44.227 439.967 46.5461 443.432 49.4711 446.348Z" fill="#772DBD"/>
<path d="M105.109 346.238L142.863 308.484C155.142 296.205 175.05 296.205 187.329 308.484C199.608 320.763 199.608 340.671 187.329 352.95L149.575 390.704C137.296 402.983 117.388 402.983 105.109 390.704C92.8302 378.426 92.8302 358.517 105.109 346.238Z" fill="#8042E0"/>
<path d="M393.669 237.089C393.949 272.129 381.359 304.519 360.239 329.449L360.079 328.439L148.819 329.639L148.829 329.689C128.169 305.429 115.689 273.979 115.689 239.609C115.689 138.449 199.879 118.699 266.009 7.07897C270.679 -0.811026 281.399 -2.41103 288.109 3.82897C319.179 32.739 392.679 114.059 393.669 237.089Z" fill="#FE255F"/>
<path d="M148.816 329.641C174.871 360.249 213.948 379.432 257.49 378.574C298.728 377.761 335.258 358.228 360.076 328.444C344.124 285.717 302.955 255.286 254.667 255.286C205.928 255.286 164.44 286.287 148.816 329.641Z" fill="#E01152"/>
<path d="M288.73 207.826C315.427 207.826 337.069 181.536 337.069 149.106C337.069 116.676 315.427 90.3861 288.73 90.3861C262.034 90.3861 240.391 116.676 240.391 149.106C240.391 181.536 262.034 207.826 288.73 207.826Z" fill="#FF4881"/>
<path d="M199.837 199.02C212.393 199.02 222.572 186.656 222.572 171.403C222.572 156.151 212.393 143.786 199.837 143.786C187.281 143.786 177.102 156.151 177.102 171.403C177.102 186.656 187.281 199.02 199.837 199.02Z" fill="#FF4881"/>
<path d="M315.832 273.659C316.603 310.958 287.237 343.312 249.938 344.047C212.157 344.792 181.296 314.388 181.296 276.776C181.296 231.918 215.497 220.129 245.846 176.926C253.234 166.409 268.481 165.532 276.872 175.268C293.352 194.39 314.888 227.981 315.832 273.659Z" fill="#FF993A"/>
<path d="M241.454 299.933C258.336 299.933 272.02 286.249 272.02 269.367C272.02 252.486 258.336 238.801 241.454 238.801C224.573 238.801 210.888 252.486 210.888 269.367C210.888 286.249 224.573 299.933 241.454 299.933Z" fill="#FFC751"/>
<path d="M388.913 77.2841C401.033 77.2841 410.859 66.3482 410.859 52.8581C410.859 39.368 401.033 28.4321 388.913 28.4321C376.792 28.4321 366.967 39.368 366.967 52.8581C366.967 66.3482 376.792 77.2841 388.913 77.2841Z" fill="#FE255F"/>
<path d="M69.6031 257.2C81.7235 257.2 91.5491 246.264 91.5491 232.774C91.5491 219.284 81.7235 208.348 69.6031 208.348C57.4827 208.348 47.6571 219.284 47.6571 232.774C47.6571 246.264 57.4827 257.2 69.6031 257.2Z" fill="#FE255F"/>
<path d="M91.5492 179.517C103.67 179.517 113.495 168.581 113.495 155.091C113.495 141.601 103.67 130.665 91.5492 130.665C79.4287 130.665 69.6031 141.601 69.6031 155.091C69.6031 168.581 79.4287 179.517 91.5492 179.517Z" fill="#FE255F"/>
<path d="M449.788 263.227C461.908 263.227 471.734 252.292 471.734 238.801C471.734 225.311 461.908 214.375 449.788 214.375C437.667 214.375 427.842 225.311 427.842 238.801C427.842 252.292 437.667 263.227 449.788 263.227Z" fill="#FE255F"/>
</svg>
